<?xml version="1.0" encoding="UTF-8"?>
<svg id="Layer_1" data-name="Layer 1" xmlns="http://www.w3.org/2000/svg" viewBox="0 0 1024 1024">
  <defs>
    <style>
      .cls-1, .cls-2, .cls-3 {
        stroke-width: 0px;
      }

      .cls-2 {
        fill: #1abe4d;
      }

      .cls-3 {
        fill: #fff;
      }
    </style>
  </defs>
  <polygon class="cls-3" points="774.61 173.85 774.61 268.74 738.21 321.55 717.58 351.49 664.5 428.54 648.11 452.34 638.87 449.71 632.93 448.03 583.8 434.04 523.29 416.83 564.29 446.07 379.5 560.1 485.6 406.11 493.08 395.27 543.86 321.55 322.11 321.55 321.49 320.74 432.88 173.85 774.61 173.85"/>
  <polygon class="cls-2" points="432.88 173.85 321.49 320.74 210.09 173.85 432.88 173.85"/>
  <polygon class="cls-3" points="813.91 696.36 790.54 805.16 691.27 696.36 813.91 696.36"/>
  <polygon class="cls-3" points="781.67 846.43 780.88 850.15 667.03 850.15 676.04 821.08 687.86 782.9 674.39 777.77 614.49 754.97 649.77 792.87 556.4 850.15 221.39 850.15 221.39 778.34 234.91 770 354.23 696.36 572.99 561.39 479.99 696.36 644.75 696.36 696.94 753.55 703.01 760.21 781.67 846.43"/>
  <polygon class="cls-2" points="701.79 467.62 695.77 485.62 681.06 529.39 652.81 613.58 644.61 517.19 643.35 502.48 623.37 488.24 615.82 482.82 597.59 469.82 326.41 637.15 379.5 560.1 564.29 446.07 523.29 416.83 583.8 434.04 632.93 448.03 638.87 449.71 648.11 452.34 659.82 455.68 701.79 467.62"/>
</svg>